<svg xmlns="http://www.w3.org/2000/svg" xmlns:xlink="http://www.w3.org/1999/xlink" viewBox="0 0 334 55">
  <defs>
    <style>
      .cls-1 {
        clip-path: url(#clip-Logo-1-1);
      }

      .cls-2, .cls-3 {
        fill: #fff;
      }

      .cls-3 {
        font-size: 35px;
        font-family: LoveYaLikeASister-Regular, Love Ya Like A Sister;
      }
    </style>
    <clipPath id="clip-Logo-1-1">
      <rect width="334" height="55"/>
    </clipPath>
  </defs>
  <g id="Logo-1-1" class="cls-1">
    <g id="Group_13" data-name="Group 13" transform="translate(1.253 -0.021)">
      <g id="noun_Children_56894" transform="translate(0 22.985)">
        <path id="Path_1" data-name="Path 1" class="cls-2" d="M68.508,19.6c-2.041-1-6.48,10.345-11.5,10.936s-9.089-.285-9.542.671-.663,1.092,2.4,1.182,4.612.7,3.63,2.955-4.091,11.416-4.091,11.416-.02.792,1.1.66,2.953-8.577,6.709-9.357,4.864,3.825,5.573,4.08,2.259-.041,1.144-1.827-3.208-7.063-2.444-8.281,7.353-9.657,7.353-9.657S70.55,20.6,68.508,19.6Z" transform="translate(-22.451 -19.241)"/>
        <ellipse id="Ellipse_1" data-name="Ellipse 1" class="cls-2" cx="4.36" cy="4.36" rx="4.36" ry="4.36" transform="translate(28.549 0)"/>
        <path id="Path_2" data-name="Path 2" class="cls-2" d="M1.82,35.609c1.517-1.694,9.893,7.15,14.771,5.809s8.316-3.68,9.1-2.965,1.024.763-1.784,2-4.009,2.38-2.253,4.1S29.733,53.6,29.733,53.6s.315.727-.769,1.023S23,47.781,19.23,48.472,16.16,53.843,15.6,54.346s-2.108.814-1.746-1.261.318-7.751-.846-8.593S2.562,38.308,2.562,38.308.3,37.3,1.82,35.609Z" transform="translate(-1.297 -26.545)"/>
        <ellipse id="Ellipse_2" data-name="Ellipse 2" class="cls-2" cx="4.36" cy="4.36" rx="4.36" ry="4.36" transform="translate(10.176 5.415)"/>
      </g>
      <g id="noun_Heart_948954" transform="translate(3.494 0)">
        <g id="Group_2" data-name="Group 2" transform="translate(0 13.661) rotate(-30)">
          <path id="Path_4" data-name="Path 4" class="cls-2" d="M7.277,0C3.546-.016,0,3.174,0,8.024c.58,5.072,4.82,5.365,7.063,12.2-1.75-7.4-5.976-7.8-6.036-12.2,0-4.227,3.033-6.887,6.245-6.873,2.2.01,4.466,1.26,5.937,4.285l.451.928.451-.928c1.811-3.723,4.833-4.78,7.436-4.093a6.6,6.6,0,0,1,4.747,6.681C24.976,18.3,12.66,18,6.96,25.177c6.7-5.931,20.2-7.628,20.361-17.153a7.781,7.781,0,0,0-5.538-7.8c-2.8-.74-6.066.363-8.123,3.832A7.523,7.523,0,0,0,7.277,0Z" transform="translate(0 0)"/>
        </g>
      </g>
    </g>
    <text id="Save_the_Children" data-name="Save the Children" class="cls-3" transform="translate(55.333 14.666)"><tspan x="0" y="32">Save the Children</tspan></text>
  </g>
</svg>
