<svg xmlns="http://www.w3.org/2000/svg" xmlns:xlink="http://www.w3.org/1999/xlink" viewBox="0 0 330 81">
  <defs>
    <style>
      .cls-1 {
        clip-path: url(#clip-STC-Logo);
      }

      .cls-2, .cls-3 {
        fill: #fff;
      }

      .cls-3 {
        font-size: 30px;
        font-family: LoveYaLikeASister-Regular, Love Ya Like A Sister;
      }

      .cls-4 {
        fill: #5ac4c3;
      }
    </style>
    <clipPath id="clip-STC-Logo">
      <rect width="330" height="81"/>
    </clipPath>
  </defs>
  <g id="STC-Logo" class="cls-1">
    <rect class="cls-4" width="330" height="81"/>
    <g id="Group_12" data-name="Group 12" transform="translate(-12 -4)">
      <g id="noun_Children_56894" transform="translate(20.379 40.446)">
        <path id="Path_1" data-name="Path 1" class="cls-2" d="M79.161,19.636c-3.062-1.5-9.72,15.518-17.254,16.4s-13.634-.427-14.313,1.007-.995,1.638,3.6,1.773,6.917,1.047,5.445,4.433-6.137,17.124-6.137,17.124-.03,1.188,1.645.991S56.581,48.5,62.215,47.332s7.3,5.738,8.359,6.121,3.388-.061,1.715-2.74-4.811-10.594-3.666-12.421,11.03-14.486,11.03-14.486S82.224,21.135,79.161,19.636Z" transform="translate(-10.076 -19.09)"/>
        <ellipse id="Ellipse_1" data-name="Ellipse 1" class="cls-2" cx="6.54" cy="6.54" rx="6.54" ry="6.54" transform="translate(42.823 0)"/>
        <path id="Path_2" data-name="Path 2" class="cls-2" d="M2.082,35.717c2.275-2.541,14.839,10.725,22.156,8.714s12.473-5.52,13.644-4.448,1.536,1.145-2.675,3-6.014,3.57-3.379,6.152S43.951,62.7,43.951,62.7s.473,1.09-1.153,1.535-8.94-10.258-14.6-9.221-4.6,8.057-5.447,8.811-3.162,1.22-2.619-1.891.476-11.627-1.269-12.889S3.2,39.766,3.2,39.766-.192,38.257,2.082,35.717Z" transform="translate(-1.297 -22.121)"/>
        <ellipse id="Ellipse_2" data-name="Ellipse 2" class="cls-2" cx="6.54" cy="6.54" rx="6.54" ry="6.54" transform="translate(15.265 8.122)"/>
      </g>
      <g id="noun_Heart_948954" transform="translate(25.62 5.969)">
        <g id="Group_2" data-name="Group 2" transform="translate(0 20.491) rotate(-30)">
          <path id="Path_4" data-name="Path 4" class="cls-2" d="M10.915,0C5.319-.024,0,4.761,0,12.036c.87,7.609,7.23,8.047,10.595,18.295C7.97,19.234,1.631,18.636,1.541,12.036c0-6.34,4.549-10.331,9.368-10.31,3.3.014,6.7,1.89,8.906,6.428l.677,1.391.677-1.391C23.883,2.569,28.417.985,32.321,2.015s7.12,4.682,7.12,10.021c-1.977,15.421-20.45,14.968-29,25.73,10.043-8.9,30.3-11.441,30.541-25.73,0-6.126-3.783-10.508-8.308-11.7-4.2-1.109-9.1.545-12.185,5.748C18.026,1.928,14.409.015,10.915,0Z" transform="translate(0 0)"/>
        </g>
      </g>
      <text id="Save_the_Children" data-name="Save the Children" class="cls-3" transform="translate(98 43)"><tspan x="0" y="28">Save the Children</tspan></text>
    </g>
  </g>
</svg>
