<svg xmlns="http://www.w3.org/2000/svg" xmlns:xlink="http://www.w3.org/1999/xlink" viewBox="0 0 148 148">
  <defs>
    <style>
      .cls-1 {
        clip-path: url(#clip-Heart);
      }

      .cls-2 {
        fill: #c00;
      }
    </style>
    <clipPath id="clip-Heart">
      <rect width="148" height="148"/>
    </clipPath>
  </defs>
  <g id="Heart" class="cls-1">
    <g id="noun_Heart_948954" transform="translate(-10.973 -14.959) rotate(-14)">
      <g id="Group_67" data-name="Group 67" transform="translate(0 45.418)">
        <path id="Path_92" data-name="Path 92" class="cls-2" d="M124.336,176.729c-18.243-.081-35.587,15.809-35.587,39.966,2.838,25.265,23.574,26.721,34.543,60.75-8.557-36.847-29.227-38.833-29.519-60.75,0-21.054,14.831-34.3,30.543-34.234,10.75.048,21.841,6.275,29.036,21.343l2.206,4.62,2.206-4.62C166.618,185.26,181.4,180,194.129,183.419s23.213,15.547,23.213,33.276c-6.446,51.205-66.676,49.7-94.552,85.437,32.744-29.543,98.8-37.992,99.577-85.437,0-20.343-12.333-34.891-27.086-38.856-13.709-3.684-29.665,1.81-39.726,19.086C147.521,183.13,135.729,176.78,124.336,176.729Z" transform="translate(-88.749 -176.729)"/>
      </g>
    </g>
  </g>
</svg>
