<svg xmlns="http://www.w3.org/2000/svg" xmlns:xlink="http://www.w3.org/1999/xlink" viewBox="0 0 97 97">
  <defs>
    <style>
      .cls-1 {
        clip-path: url(#clip-Artboard_4);
      }

      .cls-2 {
        fill: #ffa246;
      }

      .cls-3 {
        fill: #fff;
      }
    </style>
    <clipPath id="clip-Artboard_4">
      <rect width="97" height="97"/>
    </clipPath>
  </defs>
  <g id="Artboard_4" data-name="Artboard – 4" class="cls-1">
    <rect class="cls-3" width="97" height="97"/>
    <g id="noun_protect_1463610" transform="translate(17.627 15)">
      <g id="Group_36" data-name="Group 36" transform="translate(0 0)">
        <g id="Group_23" data-name="Group 23" transform="translate(34.685 20.196)">
          <path id="Path_60" data-name="Path 60" class="cls-2" d="M45.188,63.209H29.6a.709.709,0,0,1-.709-.709V46.831a6.565,6.565,0,0,1,1.935-4.673L38.187,34.8a3.96,3.96,0,0,1,6.746,2.453l.033-.033a8.414,8.414,0,0,0,2.48-5.988V20.7a3.962,3.962,0,0,1,7.924,0V35.337a8.321,8.321,0,0,1-1.876,5.255L44.171,51.985a3.57,3.57,0,0,0-.662,3.266l2.352,7.024a.709.709,0,0,1-.673.934ZM30.312,61.79H44.2l-2.047-6.115a5,5,0,0,1,.918-4.588L52.4,39.7a6.9,6.9,0,0,0,1.556-4.358V20.7a2.544,2.544,0,0,0-5.087,0V31.232a9.822,9.822,0,0,1-2.9,6.991l-6.263,6.263a.709.709,0,1,1-1-1L42.791,39.4a2.543,2.543,0,0,0-3.6-3.592l-7.358,7.357a5.156,5.156,0,0,0-1.52,3.67Z" transform="translate(-28.894 -16.738)"/>
        </g>
        <g id="Group_24" data-name="Group 24" transform="translate(0 20.196)">
          <path id="Path_61" data-name="Path 61" class="cls-2" d="M30.208,63.209H14.622a.709.709,0,0,1-.673-.934l2.36-7.049a3.559,3.559,0,0,0-.671-3.24L6.317,40.593A8.318,8.318,0,0,1,4.44,35.337V20.7a3.962,3.962,0,1,1,7.923,0V31.232a8.414,8.414,0,0,0,2.48,5.988l.033.033A3.96,3.96,0,0,1,21.624,34.8l7.357,7.357a6.565,6.565,0,0,1,1.936,4.673V62.5A.709.709,0,0,1,30.208,63.209Zm-14.6-1.418H29.5V46.831a5.226,5.226,0,0,0-1.52-3.67L20.621,35.8a2.543,2.543,0,0,0-3.6,3.592l4.088,4.088a.709.709,0,1,1-1,1l-6.263-6.263a9.822,9.822,0,0,1-2.9-6.991V20.7a2.543,2.543,0,1,0-5.086,0V35.337A6.9,6.9,0,0,0,7.414,39.7l9.322,11.393a4.986,4.986,0,0,1,.927,4.562Z" transform="translate(-4.44 -16.738)"/>
        </g>
        <g id="Group_25" data-name="Group 25" transform="translate(15.141 29.711)">
          <path id="Path_62" data-name="Path 62" class="cls-2" d="M15.824,32.618a.709.709,0,0,1-.582-1.113,18.686,18.686,0,0,1,30.7-.055.709.709,0,1,1-1.164.812,17.267,17.267,0,0,0-28.372.051A.709.709,0,0,1,15.824,32.618Z" transform="translate(-15.115 -23.446)"/>
        </g>
        <g id="Group_35" data-name="Group 35" transform="translate(12.529)">
          <g id="Group_34" data-name="Group 34">
            <g id="Group_26" data-name="Group 26" transform="translate(17.381 11.37)">
              <path id="Path_63" data-name="Path 63" class="cls-2" d="M26.237,30.275a.709.709,0,0,1-.709-.709V11.225a.709.709,0,1,1,1.418,0V29.566A.709.709,0,0,1,26.237,30.275Z" transform="translate(-25.527 -10.516)"/>
            </g>
            <g id="Group_33" data-name="Group 33">
              <g id="Group_29" data-name="Group 29" transform="translate(17.382)">
                <g id="Group_27" data-name="Group 27">
                  <path id="Path_64" data-name="Path 64" class="cls-2" d="M31.792,20.738a5.945,5.945,0,0,1-4.332-1.814l-.294-.306h0a5.818,5.818,0,0,1-1.521-5.185c1.046-5.074,5.877-10.6,16.3-10.887L43.6,2.5a.739.739,0,0,1,.532.219.711.711,0,0,1,.195.542L44.2,4.911c-.623,8.52-4.765,14.386-11.079,15.69A6.6,6.6,0,0,1,31.792,20.738Zm-3.6-3.1.294.306a4.656,4.656,0,0,0,4.353,1.267c5.657-1.168,9.378-6.553,9.952-14.4l.063-.867-.869.024c-9.595.265-14.013,5.212-14.949,9.755a4.4,4.4,0,0,0,1.157,3.919Z" transform="translate(-25.528 -2.5)"/>
                </g>
                <g id="Group_28" data-name="Group 28" transform="translate(1.441 8.403)">
                  <path id="Path_65" data-name="Path 65" class="cls-2" d="M27.252,16.358a.7.7,0,0,1-.324-.079.709.709,0,0,1-.305-.955c.109-.211,2.724-5.2,7.544-6.861A.709.709,0,1,1,34.63,9.8c-4.289,1.479-6.722,6.123-6.747,6.17A.708.708,0,0,1,27.252,16.358Z" transform="translate(-26.544 -8.424)"/>
                </g>
              </g>
              <g id="Group_32" data-name="Group 32">
                <g id="Group_30" data-name="Group 30">
                  <path id="Path_66" data-name="Path 66" class="cls-2" d="M25.808,20.738a6.6,6.6,0,0,1-1.333-.137c-6.314-1.3-10.457-7.17-11.079-15.69l-.121-1.65a.711.711,0,0,1,.195-.542A.758.758,0,0,1,14,2.5l1.653.046c10.424.288,15.254,5.813,16.3,10.887a5.818,5.818,0,0,1-1.521,5.185h0l-.294.307A5.947,5.947,0,0,1,25.808,20.738ZM14.747,3.94l.063.867c.574,7.851,4.295,13.236,9.952,14.4a4.662,4.662,0,0,0,4.353-1.267l.294-.308a4.4,4.4,0,0,0,1.157-3.918c-.936-4.543-5.354-9.491-14.949-9.755ZM29.921,18.128h0Z" transform="translate(-13.274 -2.5)"/>
                </g>
                <g id="Group_31" data-name="Group 31" transform="translate(8.794 8.403)">
                  <path id="Path_67" data-name="Path 67" class="cls-2" d="M27.328,16.358a.71.71,0,0,1-.631-.384c-.024-.047-2.472-4.7-6.746-6.17a.709.709,0,1,1,.463-1.341c4.82,1.663,7.435,6.65,7.544,6.861a.71.71,0,0,1-.63,1.034Z" transform="translate(-19.473 -8.424)"/>
                </g>
              </g>
            </g>
          </g>
        </g>
      </g>
    </g>
  </g>
</svg>
