<svg xmlns="http://www.w3.org/2000/svg" xmlns:xlink="http://www.w3.org/1999/xlink" viewBox="0 0 97 97">
  <defs>
    <style>
      .cls-1 {
        clip-path: url(#clip-Artboard_4);
      }

      .cls-2 {
        fill: #5ac4c3;
      }

      .cls-3 {
        fill: #fff;
      }
    </style>
    <clipPath id="clip-Artboard_4">
      <rect width="97" height="97"/>
    </clipPath>
  </defs>
  <g id="Artboard_4" data-name="Artboard – 4" class="cls-1">
    <rect class="cls-3" width="97" height="97"/>
    <g id="noun_protect_1526338" transform="translate(9.35 12)">
      <g id="Group" transform="translate(0 0)">
        <path id="Compound_Path" data-name="Compound Path" class="cls-2" d="M56.211,9.8A29.552,29.552,0,0,0,29.122,51.21L6.958,63.432a1.1,1.1,0,0,0-.365,1.277l8.665,17.969a1.368,1.368,0,0,0,.547.456h.73l12.313-7.206,27.181,4.1a5.837,5.837,0,0,0,4.561-1.095L79.835,65.165a5.2,5.2,0,0,0,1.277-7.114H81.02a5.2,5.2,0,0,0-1-1,29.188,29.188,0,0,0,5.837-17.6A29.643,29.643,0,0,0,56.211,9.8Zm17.33,28.64a40.406,40.406,0,0,0-2.1-12.222,27.455,27.455,0,0,0,6.02-4.834A28.184,28.184,0,0,1,84.03,38.44ZM46.178,61.79a27.18,27.18,0,0,0,3.192,3.284l-4.652-1-.73-.456a1.186,1.186,0,0,1,0-1.095,1,1,0,0,1,.821-.638Zm7.479,4.2a24.627,24.627,0,0,1-5.29-4.469l5.29-.638a3.192,3.192,0,0,0,1.642-.456v5.929ZM30.763,50.48a28.184,28.184,0,0,1-2.28-10.216H38.972A39.129,39.129,0,0,0,40.432,50.3l-7.3-.182a6.841,6.841,0,0,0-2.371.365Zm4.2-29.005a31.012,31.012,0,0,0,6.111,4.834,39.312,39.312,0,0,0-2.1,12.131H28.483a27.819,27.819,0,0,1,6.476-16.965Zm22.164-9.668A25.265,25.265,0,0,1,69.163,25.4a28.458,28.458,0,0,1-12.04,3.192ZM55.3,28.589a29.734,29.734,0,0,1-11.949-3.1A25.357,25.357,0,0,1,55.3,11.807Zm0,1.824V38.44H40.8a37.67,37.67,0,0,1,1.915-11.31A29.643,29.643,0,0,0,55.3,30.414ZM42.347,50.389A36.758,36.758,0,0,1,40.8,40.264H55.3v8.027A28.549,28.549,0,0,0,45.084,50.48H42.347ZM55.3,50.115V51.21a5.473,5.473,0,0,0-2.1-.547h-2.28a35.849,35.849,0,0,1,4.378-.547Zm2.1,16.692h-.274V58.871a5.29,5.29,0,0,0,1.095-3.284,5.108,5.108,0,0,0-1.095-2.828V50.115a28.457,28.457,0,0,1,12.04,3.192A26.086,26.086,0,0,1,57.4,66.807ZM70.714,54.22A21.526,21.526,0,0,1,74,56.591h-.182l-7.662,5.2a28,28,0,0,0,4.561-7.57Zm-13.59-5.929V40.264H71.717A37.214,37.214,0,0,1,69.8,51.575a30.373,30.373,0,0,0-12.678-3.284Zm0-9.851V30.414A30.373,30.373,0,0,0,69.8,27.13a37.214,37.214,0,0,1,1.915,11.31ZM76.186,20.107a28.184,28.184,0,0,1-5.473,4.378,27.637,27.637,0,0,0-9.668-12.5,27.728,27.728,0,0,1,15.141,8.118ZM51.468,11.989a27.637,27.637,0,0,0-9.76,12.587,28.64,28.64,0,0,1-5.473-4.469,28.549,28.549,0,0,1,15.232-8.118ZM78.831,63.706,59.495,77.478a4.378,4.378,0,0,1-3.192.73L28.848,74.1a.73.73,0,0,0-.638.091l-11.675,6.75L8.6,64.618l21.8-12.04a5.381,5.381,0,0,1,2.645-.638l20.158.547a3.466,3.466,0,0,1,3.192,3.192,3.284,3.284,0,0,1-2.919,3.375l-8.847,1a2.919,2.919,0,0,0-2.28,1.642,2.828,2.828,0,0,0,.091,2.828,2.919,2.919,0,0,0,1.915,1.368L58.765,68.9a.821.821,0,0,0,.638-.091l15.415-10.58a3.375,3.375,0,0,1,4.743.821h0a3.284,3.284,0,0,1-.73,4.652Zm-2.919-7.844a31.922,31.922,0,0,0-4.469-3.375,40.407,40.407,0,0,0,2.1-12.222H84.03a27.455,27.455,0,0,1-5.655,15.779,5.473,5.473,0,0,0-2.463-.182Z" transform="translate(-6.517 -9.8)"/>
      </g>
    </g>
  </g>
</svg>
