<svg xmlns="http://www.w3.org/2000/svg" xmlns:xlink="http://www.w3.org/1999/xlink" viewBox="0 0 97 97">
  <defs>
    <style>
      .cls-1 {
        clip-path: url(#clip-Artboard_4);
      }

      .cls-2, .cls-3 {
        fill: none;
        stroke: #f6ce6e;
        stroke-linecap: round;
        stroke-linejoin: round;
        stroke-miterlimit: 10;
        stroke-width: 3px;
      }

      .cls-3 {
        fill-rule: evenodd;
      }

      .cls-4 {
        fill: #fff;
      }
    </style>
    <clipPath id="clip-Artboard_4">
      <rect width="97" height="97"/>
    </clipPath>
  </defs>
  <g id="Artboard_4" data-name="Artboard – 4" class="cls-1">
    <rect class="cls-4" width="97" height="97"/>
    <g id="noun_Verified_Badge_1076642" data-name="noun_Verified Badge_1076642" transform="translate(15.909 4.986)">
      <path id="Path_152" data-name="Path 152" class="cls-2" d="M80.372,48.414a6.34,6.34,0,0,1,1.3-6.587,4.1,4.1,0,0,0,0-5.788,6.422,6.422,0,0,1-1.3-6.587,3.963,3.963,0,0,0-2.2-5.289,6.635,6.635,0,0,1-3.792-5.589,4.11,4.11,0,0,0-4.092-4.092A6.509,6.509,0,0,1,64.7,10.691a4,4,0,0,0-5.289-2.2,6.34,6.34,0,0,1-6.587-1.3,4.1,4.1,0,0,0-5.788,0,6.422,6.422,0,0,1-6.587,1.3,3.962,3.962,0,0,0-5.289,2.2,6.635,6.635,0,0,1-5.589,3.792,4.11,4.11,0,0,0-4.092,4.092,6.509,6.509,0,0,1-3.792,5.589,4.028,4.028,0,0,0-2.2,5.289,6.34,6.34,0,0,1-1.3,6.587,4.1,4.1,0,0,0,0,5.788,6.422,6.422,0,0,1,1.3,6.587,3.963,3.963,0,0,0,2.2,5.289,6.635,6.635,0,0,1,3.792,5.589,4.11,4.11,0,0,0,4.092,4.092,6.509,6.509,0,0,1,5.589,3.792,4,4,0,0,0,5.289,2.2,6.34,6.34,0,0,1,6.587,1.3,4.1,4.1,0,0,0,5.788,0,6.422,6.422,0,0,1,6.587-1.3,3.962,3.962,0,0,0,5.289-2.2,6.635,6.635,0,0,1,5.589-3.792,4.11,4.11,0,0,0,4.092-4.092A6.509,6.509,0,0,1,78.176,53.7,4.042,4.042,0,0,0,80.372,48.414Z" transform="translate(-17 -6)"/>
      <path id="Path_153" data-name="Path 153" class="cls-2" d="M71.211,45.541a4.557,4.557,0,0,1,.9-4.591,2.831,2.831,0,0,0,0-3.992,4.557,4.557,0,0,1-.9-4.591,2.865,2.865,0,0,0-1.5-3.693,4.7,4.7,0,0,1-2.595-3.892,2.789,2.789,0,0,0-2.794-2.794,4.572,4.572,0,0,1-3.892-2.595,2.865,2.865,0,0,0-3.693-1.5A4.557,4.557,0,0,1,52.15,17a2.831,2.831,0,0,0-3.992,0,4.557,4.557,0,0,1-4.591.9,2.865,2.865,0,0,0-3.693,1.5,4.7,4.7,0,0,1-3.892,2.595,2.789,2.789,0,0,0-2.794,2.794,4.572,4.572,0,0,1-2.595,3.892,2.865,2.865,0,0,0-1.5,3.693,4.557,4.557,0,0,1-.9,4.591,2.831,2.831,0,0,0,0,3.992,4.557,4.557,0,0,1,.9,4.591,2.865,2.865,0,0,0,1.5,3.693,4.7,4.7,0,0,1,2.595,3.892,2.789,2.789,0,0,0,2.794,2.794,4.572,4.572,0,0,1,3.892,2.595,2.865,2.865,0,0,0,3.693,1.5,4.557,4.557,0,0,1,4.591.9,2.831,2.831,0,0,0,3.992,0,4.557,4.557,0,0,1,4.591-.9,2.865,2.865,0,0,0,3.693-1.5,4.7,4.7,0,0,1,3.892-2.595,2.789,2.789,0,0,0,2.794-2.794,4.572,4.572,0,0,1,2.595-3.892A2.918,2.918,0,0,0,71.211,45.541Z" transform="translate(-17.021 -6.021)"/>
      <path id="Path_154" data-name="Path 154" class="cls-3" d="M49.945,72.982,43.958,93.94l-7.984-9.98L23,87.952,30.984,64" transform="translate(-17.012 -6.117)"/>
      <path id="Path_155" data-name="Path 155" class="cls-3" d="M67.063,65.1l9.88,18.862-11.976-1L57.982,93.942,49,77.974" transform="translate(-17.065 -6.119)"/>
      <path id="Path_156" data-name="Path 156" class="cls-3" d="M40,39.982l5.988,5.988L59.96,31" transform="translate(-17.046 -6.05)"/>
    </g>
  </g>
</svg>
